<svg id="SvgjsSvg1023" xmlns="http://www.w3.org/2000/svg" version="1.1" xmlns:xlink="http://www.w3.org/1999/xlink" xmlns:svgjs="http://svgjs.com/svgjs" width="28" height="28" viewBox="0 0 28 28"><title>Фигура 1</title><desc>Created with Avocode.</desc><defs id="SvgjsDefs1024"></defs><path id="SvgjsPath1025" d="M1588 75.0561C1588 74.9666 1587.96 74.9018 1587.94 74.863C1587.94 74.8564 1587.93 74.8495 1587.93 74.8391L1587.92 74.80460000000001C1587.9 74.73200000000001 1587.8700000000001 74.64120000000001 1587.8100000000002 74.56330000000001C1587.7400000000002 74.46650000000001 1587.65 74.41980000000001 1587.5800000000002 74.38220000000001L1587.5700000000002 74.37670000000001C1587.5600000000002 74.37220000000002 1587.5600000000002 74.36690000000002 1587.5500000000002 74.36160000000001C1587.5200000000002 74.32710000000002 1587.4700000000003 74.26910000000001 1587.3600000000001 74.24520000000001L1587.3200000000002 74.24210000000001C1587.3100000000002 74.24210000000001 1587.2900000000002 74.2432 1587.2800000000002 74.24520000000001C1587.2600000000002 74.2339 1587.2200000000003 74.22370000000001 1587.1800000000003 74.22370000000001H1566.6500000000003L1565.7700000000002 70.63130000000001C1565.6800000000003 70.2596 1565.3500000000001 69.9997 1564.9700000000003 69.9997H1560.8200000000002C1560.3700000000001 69.9997 1560.0000000000002 70.37320000000001 1560.0000000000002 70.8323C1560.0000000000002 71.291 1560.3700000000001 71.66460000000001 1560.8200000000002 71.66460000000001H1564.3300000000002L1568.14 87.1084C1567.7 87.2603 1567.3600000000001 87.4719 1567.0800000000002 87.7535C1566.5300000000002 88.3127 1566.2300000000002 89.05030000000001 1566.2400000000002 89.8306C1566.2400000000002 90.62310000000001 1566.5600000000002 91.35520000000001 1567.1500000000003 91.9193C1567.1200000000003 91.93610000000001 1567.1000000000004 91.9551 1567.0800000000004 91.977C1566.5300000000004 92.5342 1566.2300000000005 93.2723 1566.2400000000005 94.0548C1566.2400000000005 95.6788 1567.5300000000004 96.9995 1569.1300000000006 96.9995C1569.9100000000005 96.9995 1570.6400000000006 96.6927 1571.1900000000005 96.1337C1571.7300000000005 95.57430000000001 1572.0300000000004 94.8356 1572.0300000000004 94.0548C1572.0300000000004 93.6256 1571.9200000000005 93.2052 1571.6900000000005 92.778H1581.6800000000005C1581.4600000000005 93.2107 1581.3500000000006 93.63130000000001 1581.3500000000006 94.0548C1581.3500000000006 95.6788 1582.6500000000005 96.9995 1584.2500000000007 96.9995C1585.0200000000007 96.9995 1585.7500000000007 96.6927 1586.3000000000006 96.1357C1586.8500000000006 95.5825 1587.1500000000005 94.8434 1587.1500000000005 94.0548C1587.1500000000005 92.4384 1585.8500000000006 91.1172 1584.2500000000005 91.1097H1569.1300000000006C1568.4400000000005 91.1097 1567.8700000000006 90.5359 1567.8700000000006 89.8293C1567.8700000000006 89.4939 1568.0000000000007 89.1742 1568.2400000000005 88.93180000000001C1568.4800000000005 88.68880000000001 1568.8000000000004 88.55510000000001 1569.1400000000006 88.55510000000001H1584.0600000000006C1584.4400000000007 88.55510000000001 1584.7600000000007 88.29610000000001 1584.8600000000006 87.92460000000001L1587.9700000000005 75.26040000000002C1587.9800000000005 75.22190000000002 1587.9800000000005 75.18670000000002 1587.9800000000005 75.15810000000002C1587.9900000000005 75.13150000000002 1588.0000000000005 75.09700000000002 1588.0000000000005 75.05610000000001ZM1586.13 75.8886L1583.42 86.889H1569.77L1567.06 75.8886ZM1567.88 94.0555C1567.8700000000001 93.7164 1568 93.3971 1568.24 93.15719999999999C1568.48 92.91319999999999 1568.8 92.77909999999999 1569.13 92.77909999999999C1569.8300000000002 92.77909999999999 1570.39 93.35459999999999 1570.39 94.06389999999999C1570.4 94.3984 1570.2700000000002 94.71629999999999 1570.0300000000002 94.95909999999999C1569.7900000000002 95.202 1569.4700000000003 95.3359 1569.13 95.3359C1568.44 95.3359 1567.88 94.7623 1567.88 94.0555ZM1585.14 94.9591C1584.9 95.20200000000001 1584.5900000000001 95.33590000000001 1584.25 95.33590000000001C1583.55 95.33590000000001 1582.99 94.76230000000001 1582.99 94.05700000000002C1582.99 93.71640000000002 1583.1200000000001 93.39670000000001 1583.35 93.15720000000002C1583.6 92.91320000000002 1583.9099999999999 92.77910000000001 1584.25 92.77910000000001C1584.94 92.77910000000001 1585.51 93.35460000000002 1585.51 94.06260000000002C1585.51 94.39840000000002 1585.3799999999999 94.71670000000002 1585.14 94.95910000000002Z " fill="#333333" fill-opacity="1" transform="matrix(1,0,0,1,-1560,-69)"></path></svg>