<svg id="SvgjsSvg1014" xmlns="http://www.w3.org/2000/svg" version="1.1" xmlns:xlink="http://www.w3.org/1999/xlink" xmlns:svgjs="http://svgjs.com/svgjs" width="13" height="8" viewBox="0 0 13 8"><title>Прямоугольник, скругл. углы 1 копия 24</title><desc>Created with Avocode.</desc><defs id="SvgjsDefs1015"></defs><path id="SvgjsPath1016" d="M1095.67 617.171C1095.8700000000001 616.975 1096.18 616.975 1096.38 617.171L1100.3300000000002 621.12C1100.5200000000002 621.315 1100.5200000000002 621.632 1100.3300000000002 621.827C1100.13 622.023 1099.8200000000002 622.023 1099.6200000000001 621.827L1095.67 617.878C1095.48 617.683 1095.48 617.3660000000001 1095.67 617.171ZM1107.33 614.171C1107.1299999999999 613.976 1106.82 613.976 1106.62 614.171L1099.6699999999998 621.12C1099.4799999999998 621.315 1099.4799999999998 621.632 1099.6699999999998 621.827C1099.87 622.023 1100.1799999999998 622.023 1100.3799999999999 621.827L1107.33 614.878C1107.52 614.683 1107.52 614.3660000000001 1107.33 614.171Z " fill="#57ae85" fill-opacity="1" transform="matrix(1,0,0,1,-1095,-614)"></path></svg>