<svg id="SvgjsSvg1020" xmlns="http://www.w3.org/2000/svg" version="1.1" xmlns:xlink="http://www.w3.org/1999/xlink" xmlns:svgjs="http://svgjs.com/svgjs" width="12" height="11" viewBox="0 0 12 11"><title>Фигура 7 копия 3</title><desc>Created with Avocode.</desc><defs id="SvgjsDefs1021"></defs><path id="SvgjsPath1022" d="M889.202 332.001H880.796C879.807 332.00199999999995 879.0010000000001 332.818 879 333.81899999999996V339.24199999999996C879.001 340.24299999999994 879.807 341.05899999999997 880.796 341.05999999999995H885.426L887.085 342.74199999999996C887.249 342.90599999999995 887.467 342.99699999999996 887.697 342.99799999999993H887.699C888.179 342.99799999999993 888.5699999999999 342.60299999999995 888.5709999999999 342.11799999999994V341.05999999999995H889.204C890.193 341.05899999999997 890.9989999999999 340.24299999999994 891 339.24199999999996V333.81899999999996C890.999 332.816 890.192 332.001 889.202 332.001ZM880.126 339.242V333.819C880.127 333.447 880.428 333.142 880.7959999999999 333.141H889.204C889.572 333.142 889.872 333.447 889.8729999999999 333.819L889.8789999999999 333.969V339.241C889.8789999999999 339.615 889.5779999999999 339.919 889.2099999999999 339.919H888.0139999999999C887.7029999999999 339.919 887.4499999999999 340.176 887.4499999999999 340.49V341.495L886.0619999999999 340.088C885.9569999999999 339.981 885.8109999999999 339.91900000000004 885.6619999999999 339.91900000000004H880.7959999999999C880.4279999999999 339.91900000000004 880.127 339.61500000000007 880.126 339.242Z " fill="#777777" fill-opacity="1" transform="matrix(1,0,0,1,-879,-332)"></path></svg>