<svg id="SvgjsSvg1000" xmlns="http://www.w3.org/2000/svg" version="1.1" xmlns:xlink="http://www.w3.org/1999/xlink" xmlns:svgjs="http://svgjs.com/svgjs" width="93" height="17" viewBox="0 0 93 17"><title>Фигура 17</title><desc>Created with Avocode.</desc><defs id="SvgjsDefs1001"></defs><path id="SvgjsPath1007" d="M1243.5 314.156C1243.76 314.132 1243.86 314.121 1243.94 314.119C1244.6000000000001 314.09700000000004 1245.16 313.68 1245.3700000000001 314.58900000000006C1245.5600000000002 315.39000000000004 1245.0800000000002 316.4320000000001 1244.3300000000002 316.67800000000005C1243.64 316.9030000000001 1242.9 316.98300000000006 1242.18 317.05000000000007C1240.8400000000001 317.1860000000001 1240.3 317.70200000000006 1240.1000000000001 319.09900000000005C1240.6200000000001 318.87200000000007 1241.14 318.54600000000005 1241.69 318.43700000000007C1244.22 317.9360000000001 1246.0900000000001 319.4120000000001 1246.3300000000002 322.04600000000005C1246.5800000000002 324.6940000000001 1244.9 326.81300000000005 1242.4800000000002 326.89300000000003C1239.6500000000003 326.98400000000004 1238.1400000000003 325.60200000000003 1237.9500000000003 322.68800000000005C1237.8900000000003 321.75000000000006 1237.8900000000003 320.80100000000004 1237.9400000000003 319.86300000000006C1238.1200000000003 316.91100000000006 1239.4100000000003 315.55400000000003 1242.2800000000002 315.36100000000005C1243.1000000000001 315.3070000000001 1243.6900000000003 315.24300000000005 1243.5000000000002 314.15600000000006ZM1244.07 322.722C1244.07 320.82 1243.34 319.83599999999996 1242.12 319.84C1240.9199999999998 319.84799999999996 1240.1299999999999 320.88199999999995 1240.1399999999999 322.44199999999995C1240.1499999999999 323.98099999999994 1240.8999999999999 324.98299999999995 1242.07 324.98599999999993C1242.9099999999999 324.99099999999993 1243.56 324.6329999999999 1243.84 323.78099999999995C1243.98 323.35799999999995 1244.04 322.90399999999994 1244.07 322.7219999999999ZM1254.99 318.26C1255.74 318.26 1256.3700000000001 318.26 1257.03 318.26C1257.07 318.527 1257.1 318.775 1257.1399999999999 319.03999999999996C1259.2599999999998 316.81199999999995 1262.61 318.222 1262.86 321.02099999999996C1262.9699999999998 322.09899999999993 1262.9699999999998 323.00999999999993 1262.7299999999998 324.29599999999994C1262.1499999999999 326.99499999999995 1259.0599999999997 327.70599999999996 1257.2199999999998 325.90299999999996C1257.2199999999998 327.265 1257.2199999999998 328.49899999999997 1257.2199999999998 329.82199999999995C1256.4399999999998 329.82199999999995 1255.7899999999997 329.82199999999995 1254.9899999999998 329.82199999999995C1254.9899999999998 327.9359999999999 1254.9899999999998 326.02699999999993 1254.9899999999998 324.12499999999994C1254.9899999999998 322.20699999999994 1254.9899999999998 320.29099999999994 1254.9899999999998 318.25999999999993ZM1260.79 322.522C1260.78 322.192 1260.71 321.679 1260.6 321.3C1260.34 320.446 1259.8999999999999 320 1258.9399999999998 319.98400000000004C1257.9699999999998 319.97 1257.3899999999999 320.51800000000003 1257.2799999999997 321.39700000000005C1257.1699999999998 322.23400000000004 1257.1699999999998 323.16800000000006 1257.4499999999998 323.94300000000004C1257.62 324.40000000000003 1258.4599999999998 324.908 1258.9599999999998 324.91100000000006C1259.4599999999998 324.91600000000005 1260.1799999999998 324.55800000000005 1260.4299999999998 324.02700000000004C1260.6399999999999 323.57900000000006 1260.7799999999997 323.04 1260.7899999999997 322.52200000000005ZM1267.17 324.242C1267.64 322.522 1268.1200000000001 321.01 1268.44 319.46000000000004C1268.65 318.41 1269.13 318.16600000000005 1270.1200000000001 318.22200000000004C1270.49 318.244 1270.69 318.25800000000004 1271.13 318.25800000000004C1270.8400000000001 319.14500000000004 1270.5800000000002 319.889 1270.3200000000002 320.66800000000006C1269.5100000000002 323.02700000000004 1268.7200000000003 325.39200000000005 1267.88 327.74500000000006C1267.13 329.85400000000004 1266.5100000000002 330.20400000000006 1264.22 329.9150000000001C1264.22 329.3810000000001 1264.22 328.8430000000001 1264.22 328.21600000000007C1264.42 328.21600000000007 1264.63 328.24100000000004 1264.84 328.2100000000001C1265.7099999999998 328.0690000000001 1266.07 327.4590000000001 1265.77 326.5920000000001C1264.91 324.0120000000001 1264.03 321.4370000000001 1263.16 318.8590000000001C1263.1100000000001 318.7090000000001 1262.97 318.2360000000001 1262.97 318.2360000000001C1262.97 318.2360000000001 1263.88 318.2150000000001 1265.08 318.2360000000001C1265.25 318.2380000000001 1265.47 318.6290000000001 1265.55 318.8640000000001C1266 320.3520000000001 1266.4199999999998 321.8540000000001 1266.85 323.34800000000007C1266.9299999999998 323.5850000000001 1267.02 323.8180000000001 1267.1699999999998 324.2420000000001ZM1193.73 326.613C1192.84 326.613 1192.1200000000001 326.613 1191.31 326.613C1191.31 323.51 1191.31 320.453 1191.31 317.29C1190.1699999999998 317.29 1189.11 317.29 1188 317.29C1188 316.603 1188 316.029 1188 315.28900000000004C1188.32 315.28900000000004 1188.65 315.28900000000004 1188.98 315.28900000000004C1191.1200000000001 315.28900000000004 1193.96 315.28200000000004 1195.72 315.278C1196.47 315.27700000000004 1196.97 316.90000000000003 1197.04 317.226C1195.94 317.226 1194.8799999999999 317.226 1193.73 317.226C1193.73 320.395 1193.73 323.473 1193.73 326.613ZM1236.88 321.167C1236.8200000000002 321.45799999999997 1236.8000000000002 321.61899999999997 1236.75 321.77099999999996C1236.1 323.53999999999996 1236.49 323.20599999999996 1234.72 323.23799999999994C1233.84 323.2509999999999 1232.96 323.2439999999999 1232.08 323.2439999999999C1232.1 321.5229999999999 1232.4299999999998 321.1669999999999 1233.9199999999998 321.1669999999999C1234.87 321.1669999999999 1235.82 321.1669999999999 1236.8799999999999 321.1669999999999ZM1281 326.657C1280.33 326.657 1279.74 326.657 1279.04 326.657C1279.04 325.703 1279.04 324.79699999999997 1279.04 323.894C1279.04 322.991 1279.04 322.09000000000003 1279.04 321.184C1278.97 321.17100000000005 1278.9099999999999 321.15500000000003 1278.84 321.146C1278.48 322.223 1278.05 323.279 1277.78 324.375C1277.54 325.31 1276.8999999999999 325.08 1276.29 325.137C1275.69 325.188 1275.3799999999999 324.995 1275.21 324.359C1274.91 323.24699999999996 1274.49 322.173 1273.96 321.10999999999996C1273.96 322.93999999999994 1273.96 324.77 1273.96 326.657C1273.26 326.657 1272.63 326.657 1271.94 326.657C1271.94 323.902 1271.94 318.258 1271.94 318.258C1271.94 318.258 1274.15 318.25899999999996 1274.76 318.25899999999996C1274.98 318.25899999999996 1275.18 318.669 1275.27 318.917C1275.71 320.102 1276.08 321.301 1276.56 322.71C1277.01 321.32 1277.4199999999998 320.13399999999996 1277.79 318.933C1277.93 318.46299999999997 1278.1399999999999 318.266 1278.6499999999999 318.263C1279.53 318.258 1280.1 318.26 1280.9999999999998 318.258C1280.9999999999998 321.08 1280.9999999999998 323.84299999999996 1280.9999999999998 326.657ZM1250.5 324.242C1250.96 322.522 1251.45 321.01 1251.77 319.46000000000004C1251.98 318.41 1252.45 318.16600000000005 1253.45 318.22200000000004C1253.82 318.244 1254.01 318.25800000000004 1254.46 318.25800000000004C1254.16 319.14500000000004 1253.91 319.889 1253.65 320.66800000000006C1252.8400000000001 323.02700000000004 1252.0500000000002 325.39200000000005 1251.21 327.74500000000006C1250.46 329.85400000000004 1249.8400000000001 330.20400000000006 1247.54 329.9150000000001C1247.54 329.3810000000001 1247.54 328.8430000000001 1247.54 328.21600000000007C1247.75 328.21600000000007 1247.96 328.24100000000004 1248.17 328.2100000000001C1249.03 328.0690000000001 1249.4 327.4590000000001 1249.1000000000001 326.5920000000001C1248.2400000000002 324.0120000000001 1247.3600000000001 321.4370000000001 1246.4900000000002 318.8590000000001C1246.4400000000003 318.7090000000001 1246.2900000000002 318.2360000000001 1246.2900000000002 318.2360000000001C1246.2900000000002 318.2360000000001 1247.2100000000003 318.2150000000001 1248.41 318.2360000000001C1248.5800000000002 318.2380000000001 1248.8000000000002 318.6290000000001 1248.88 318.8640000000001C1249.3200000000002 320.3520000000001 1249.75 321.8540000000001 1250.18 323.34800000000007C1250.25 323.5850000000001 1250.3500000000001 323.8180000000001 1250.5 324.2420000000001ZM1204.65 318.237C1205.41 318.237 1206.0400000000002 318.237 1206.7 318.237C1206.74 318.505 1206.77 318.75300000000004 1206.8 319.01800000000003C1208.93 316.78900000000004 1212.27 318.20000000000005 1212.53 320.99800000000005C1212.6299999999999 322.07700000000006 1212.6299999999999 322.987 1212.3899999999999 324.273C1211.81 326.973 1208.7299999999998 327.68300000000005 1206.8799999999999 325.88000000000005C1206.8799999999999 327.2420000000001 1206.8799999999999 328.47600000000006 1206.8799999999999 329.79900000000004C1206.11 329.79900000000004 1205.4599999999998 329.79900000000004 1204.6499999999999 329.79900000000004C1204.6499999999999 327.913 1204.6499999999999 326.00500000000005 1204.6499999999999 324.10200000000003C1204.6499999999999 322.184 1204.6499999999999 320.269 1204.6499999999999 318.237ZM1210.46 322.499C1210.44 322.17 1210.38 321.656 1210.26 321.278C1210.01 320.423 1209.57 319.97700000000003 1208.6 319.961C1207.6299999999999 319.94800000000004 1207.05 320.49600000000004 1206.9399999999998 321.374C1206.84 322.211 1206.83 323.14500000000004 1207.12 323.92100000000005C1207.29 324.37800000000004 1208.12 324.88500000000005 1208.62 324.88800000000003C1209.12 324.894 1209.84 324.53600000000006 1210.1 324.00500000000005C1210.31 323.55600000000004 1210.4499999999998 323.01800000000003 1210.4599999999998 322.4990000000001ZM1216.84 324.22C1217.3 322.499 1217.79 320.987 1218.11 319.437C1218.32 318.387 1218.79 318.14300000000003 1219.78 318.2C1220.16 318.221 1220.35 318.236 1220.8 318.236C1220.5 319.123 1220.25 319.86699999999996 1219.98 320.645C1219.17 323.005 1218.38 325.36899999999997 1217.55 327.72299999999996C1216.79 329.83099999999996 1216.1699999999998 330.181 1213.8799999999999 329.893C1213.8799999999999 329.35799999999995 1213.8799999999999 328.82099999999997 1213.8799999999999 328.19399999999996C1214.09 328.19399999999996 1214.3 328.21799999999996 1214.51 328.188C1215.37 328.04699999999997 1215.74 327.437 1215.44 326.56899999999996C1214.5800000000002 323.98999999999995 1213.7 321.414 1212.8300000000002 318.83599999999996C1212.7800000000002 318.68699999999995 1212.63 318.21399999999994 1212.63 318.21399999999994C1212.63 318.21399999999994 1213.5500000000002 318.19199999999995 1214.74 318.21299999999997C1214.92 318.21599999999995 1215.14 318.60599999999994 1215.21 318.84099999999995C1215.66 320.3299999999999 1216.0900000000001 321.83099999999996 1216.52 323.32499999999993C1216.59 323.56299999999993 1216.69 323.79499999999996 1216.84 324.2199999999999ZM1230.67 326.634C1229.99 326.634 1229.4 326.634 1228.7 326.634C1228.7 325.68 1228.7 324.774 1228.7 323.87100000000004C1228.7 322.968 1228.7 322.06800000000004 1228.7 321.16100000000006C1228.64 321.1480000000001 1228.57 321.13200000000006 1228.5 321.1240000000001C1228.15 322.2000000000001 1227.72 323.25700000000006 1227.44 324.35300000000007C1227.21 325.2870000000001 1226.56 325.05800000000005 1225.96 325.1140000000001C1225.3500000000001 325.1650000000001 1225.05 324.9720000000001 1224.88 324.33600000000007C1224.5700000000002 323.2250000000001 1224.16 322.15100000000007 1223.6200000000001 321.08700000000005C1223.6200000000001 322.91800000000006 1223.6200000000001 324.74700000000007 1223.6200000000001 326.63400000000007C1222.92 326.63400000000007 1222.3000000000002 326.63400000000007 1221.6100000000001 326.63400000000007C1221.6100000000001 323.8790000000001 1221.6100000000001 318.23600000000005 1221.6100000000001 318.23600000000005C1221.6100000000001 318.23600000000005 1223.8100000000002 318.23600000000005 1224.43 318.23600000000005C1224.64 318.23600000000005 1224.8400000000001 318.6460000000001 1224.93 318.89500000000004C1225.3700000000001 320.07900000000006 1225.75 321.27900000000005 1226.22 322.687C1226.68 321.297 1227.09 320.111 1227.46 318.911C1227.6000000000001 318.441 1227.8 318.243 1228.31 318.24C1229.2 318.236 1229.76 318.237 1230.6699999999998 318.236C1230.6699999999998 321.057 1230.6699999999998 323.82 1230.6699999999998 326.634ZM1200.16 324.22C1200.63 322.499 1201.1100000000001 320.987 1201.43 319.437C1201.64 318.387 1202.1200000000001 318.14300000000003 1203.1100000000001 318.2C1203.48 318.221 1203.68 318.236 1204.1200000000001 318.236C1203.8300000000002 319.123 1203.5700000000002 319.86699999999996 1203.3100000000002 320.645C1202.5000000000002 323.005 1201.7100000000003 325.36899999999997 1200.8700000000001 327.72299999999996C1200.1200000000001 329.83099999999996 1199.5000000000002 330.181 1197.21 329.893C1197.21 329.35799999999995 1197.21 328.82099999999997 1197.21 328.19399999999996C1197.41 328.19399999999996 1197.63 328.21799999999996 1197.83 328.188C1198.6999999999998 328.04699999999997 1199.06 327.437 1198.77 326.56899999999996C1197.9 323.98999999999995 1197.03 321.414 1196.15 318.83599999999996C1196.1000000000001 318.68699999999995 1195.96 318.21399999999994 1195.96 318.21399999999994C1195.96 318.21399999999994 1196.8700000000001 318.19199999999995 1198.07 318.21299999999997C1198.24 318.21599999999995 1198.46 318.60599999999994 1198.54 318.84099999999995C1198.99 320.3299999999999 1199.4099999999999 321.83099999999996 1199.85 323.32499999999993C1199.9199999999998 323.56299999999993 1200.02 323.79499999999996 1200.1599999999999 324.2199999999999Z " fill="#ffffff" fill-opacity="1" transform="matrix(1,0,0,1,-1188,-314)"></path></svg>