<svg id="SvgjsSvg1008" xmlns="http://www.w3.org/2000/svg" version="1.1" xmlns:xlink="http://www.w3.org/1999/xlink" xmlns:svgjs="http://svgjs.com/svgjs" width="18" height="17" viewBox="0 0 18 17"><title>Фигура 44 копия</title><desc>Created with Avocode.</desc><defs id="SvgjsDefs1009"></defs><path id="SvgjsPath1010" d="M758.303 2307.93C757.98 2308.33 757.643 2308.4199999999996 757.417 2308.4199999999996H753.626C753.752 2309.0499999999997 753.726 2309.9999999999995 753.14 2311.2799999999997C752.43 2312.83 751.4 2313.0199999999995 750.848 2312.9999999999995C750.006 2312.9599999999996 749.317 2312.4099999999994 749.137 2311.8999999999996C748.944 2311.3499999999995 748.9609999999999 2310.0999999999995 748.9799999999999 2309.5199999999995L747.3159999999999 2306.4899999999993L747.1949999999999 2306.439999999999C747.112 2306.899999999999 746.7819999999999 2307.629999999999 746.1539999999999 2307.629999999999H741.9499999999999C741.2599999999999 2307.629999999999 741.002 2306.7799999999993 741.002 2306.2399999999993V2297.879999999999C741.002 2297.6799999999994 741.0709999999999 2296.999999999999 741.9499999999999 2296.999999999999H746.1539999999999C747.1399999999999 2296.999999999999 747.2169999999999 2297.679999999999 747.2169999999999 2297.879999999999V2298.5499999999993C747.8739999999999 2298.209999999999 748.8369999999999 2297.7799999999993 749.5099999999999 2297.7799999999993H755.1019999999999C755.1199999999999 2297.7799999999993 755.1379999999998 2297.7899999999995 755.1549999999999 2297.7899999999995C756.5499999999998 2297.8399999999997 757.0599999999998 2298.5799999999995 757.2389999999998 2299.0199999999995C757.5929999999998 2299.8999999999996 758.8239999999998 2304.9699999999993 758.9679999999998 2305.5599999999995C759.0989999999998 2306.1799999999994 758.7759999999998 2307.3299999999995 758.3029999999999 2307.9299999999994ZM746.016 2298.22H742.203V2306.24C742.203 2306.2799999999997 742.213 2306.35 742.227 2306.41H745.952C745.983 2306.35 746.012 2306.27 746.016 2306.24ZM757.798 2305.83C757.425 2304.2999999999997 756.399 2300.16 756.128 2299.49C755.999 2299.1699999999996 755.615 2299 754.9870000000001 2299H749.5100000000001C749.0270000000002 2299 747.9040000000001 2299.54 747.2170000000001 2299.94V2305.14L748.1550000000001 2305.5099999999998L750.1940000000001 2309.2299999999996L750.186 2309.3999999999996C750.152 2310.18 750.172 2311.18 750.264 2311.47C750.325 2311.5699999999997 750.62 2311.79 750.976 2311.7799999999997C751.493 2311.7499999999995 751.846 2311.22 752.051 2310.7699999999995C752.85 2309.0099999999993 752.3100000000001 2308.2599999999993 752.2990000000001 2308.2499999999995L752.3410000000001 2308.2099999999996C752.2470000000001 2308.0999999999995 752.1880000000001 2307.9599999999996 752.1880000000001 2307.8099999999995C752.1880000000001 2307.4699999999993 752.4560000000001 2307.1999999999994 752.7880000000001 2307.1999999999994H757.3400000000001C757.5710000000001 2306.9799999999996 757.8460000000001 2306.0899999999992 757.7980000000001 2305.8299999999995Z " fill="#333333" fill-opacity="1" transform="matrix(1,0,0,1,-741,-2297)"></path></svg>