<svg id="SvgjsSvg1014" xmlns="http://www.w3.org/2000/svg" version="1.1" xmlns:xlink="http://www.w3.org/1999/xlink" xmlns:svgjs="http://svgjs.com/svgjs" width="26" height="26" viewBox="0 0 26 26"><title>Фигура 3</title><desc>Created with Avocode.</desc><defs id="SvgjsDefs1015"></defs><path id="SvgjsPath1016" d="M1352.65 79.056L1340.42 72.1211C1340.17 71.9557 1339.8300000000002 71.9557 1339.5700000000002 72.1211L1327.3500000000001 79.0556C1327.13 79.1979 1327.0000000000002 79.4383 1327.0000000000002 79.698V96.23089999999999C1327.0000000000002 96.65509999999999 1327.3500000000001 96.9995 1327.7700000000002 96.9995H1352.2200000000003C1352.6500000000003 96.9995 1353.0000000000002 96.6551 1353.0000000000002 96.23089999999999V79.698C1353.0000000000002 79.4383 1352.8700000000001 79.19789999999999 1352.6500000000003 79.056ZM1347.78 95.4625H1332.22V93.5789H1347.78ZM1347.78 92.0415H1332.22V90.1224H1347.78ZM1347.78 88.5852H1332.22V86.6316H1347.78ZM1347.78 85.0942H1332.22V83.2222H1347.78ZM1351.45 95.4625H1349.3300000000002V82.4534C1349.3300000000002 82.0295 1348.9800000000002 81.6848 1348.5500000000002 81.6848H1331.4400000000003C1331.0200000000002 81.6848 1330.6700000000003 82.0295 1330.6700000000003 82.4534V95.4625H1328.5500000000004V80.11240000000001L1340.0000000000005 73.6833L1351.4500000000005 80.11240000000001Z " fill="#333333" fill-opacity="1" transform="matrix(1,0,0,1,-1327,-71)"></path></svg>