<svg id="SvgjsSvg1017" xmlns="http://www.w3.org/2000/svg" version="1.1" xmlns:xlink="http://www.w3.org/1999/xlink" xmlns:svgjs="http://svgjs.com/svgjs" width="24" height="22" viewBox="0 0 24 22"><title>Фигура 2</title><desc>Created with Avocode.</desc><defs id="SvgjsDefs1018"></defs><path id="SvgjsPath1019" d="M1418.03 74.9996C1416 74.9996 1414.35 75.8289 1413 77.5316C1411.65 75.8286 1410 74.9996 1407.97 74.9996C1403.6100000000001 74.9996 1401 78.6175 1401 82.1149C1401 85.113 1402.48 88.06360000000001 1405.4 90.88520000000001C1407.98 93.38390000000001 1411.02 95.10300000000001 1412.6000000000001 95.90660000000001C1412.7300000000002 95.96770000000001 1412.8600000000001 96.00000000000001 1413.0000000000002 96.00000000000001C1413.1400000000003 96.00000000000001 1413.2700000000002 95.96770000000001 1413.4000000000003 95.90550000000002C1414.9800000000002 95.10300000000002 1418.0200000000002 93.38390000000001 1420.6000000000004 90.88520000000001C1423.5200000000004 88.06360000000001 1425.0000000000005 85.11300000000001 1425.0000000000005 82.1149C1425.0000000000005 78.6175 1422.3900000000006 74.9996 1418.0300000000004 74.9996ZM1418.03 76.7183C1421.46 76.7183 1423.25 79.4335 1423.25 82.1149C1423.25 84.629 1421.95 87.1653 1419.37 89.65350000000001C1417.11 91.8365 1414.4699999999998 93.38850000000001 1413 94.16350000000001C1411.53 93.38850000000001 1408.88 91.83650000000002 1406.63 89.65350000000001C1404.0500000000002 87.1653 1402.75 84.629 1402.75 82.1149C1402.75 79.43350000000001 1404.54 76.7183 1407.97 76.7183C1409.84 76.7183 1411.08 77.5013 1412.25 79.4206C1412.41 79.6796 1412.69 79.8403 1413 79.8403C1413.16 79.8403 1413.31 79.7987 1413.45 79.7197C1413.57 79.6466 1413.68 79.54350000000001 1413.75 79.42110000000001C1414.92 77.50130000000001 1416.16 76.71830000000001 1418.03 76.71830000000001Z " fill="#333333" fill-opacity="1" transform="matrix(1,0,0,1,-1401,-74)"></path></svg>