<svg id="SvgjsSvg1011" xmlns="http://www.w3.org/2000/svg" version="1.1" xmlns:xlink="http://www.w3.org/1999/xlink" xmlns:svgjs="http://svgjs.com/svgjs" width="18" height="17" viewBox="0 0 18 17"><title>Фигура 44</title><desc>Created with Avocode.</desc><defs id="SvgjsDefs1012"></defs><path id="SvgjsPath1013" d="M705.303 2298.07C704.98 2297.67 704.643 2297.5800000000004 704.416 2297.5800000000004H700.6260000000001C700.7520000000001 2296.9500000000003 700.7260000000001 2296.0000000000005 700.1400000000001 2294.7200000000003C699.4300000000001 2293.1600000000003 698.4000000000001 2292.9800000000005 697.8480000000001 2293.0000000000005C697.0060000000001 2293.0400000000004 696.3170000000001 2293.5900000000006 696.1370000000001 2294.1000000000004C695.9440000000001 2294.6500000000005 695.961 2295.9000000000005 695.98 2296.4800000000005L694.316 2299.5100000000007L694.195 2299.560000000001C694.1120000000001 2299.100000000001 693.782 2298.370000000001 693.154 2298.370000000001H688.95C688.26 2298.370000000001 688.0020000000001 2299.2200000000007 688.0020000000001 2299.7600000000007V2308.120000000001C688.0020000000001 2308.3200000000006 688.071 2309.000000000001 688.95 2309.000000000001H693.154C694.14 2309.000000000001 694.217 2308.320000000001 694.217 2308.120000000001V2307.4500000000007C694.874 2307.790000000001 695.837 2308.2200000000007 696.51 2308.2200000000007H702.102C702.12 2308.2200000000007 702.1379999999999 2308.2100000000005 702.155 2308.2100000000005C703.55 2308.1600000000003 704.06 2307.4200000000005 704.2389999999999 2306.9700000000007C704.593 2306.100000000001 705.824 2301.0300000000007 705.968 2300.4400000000005C706.0989999999999 2299.8200000000006 705.776 2298.6700000000005 705.303 2298.0700000000006ZM693.017 2307.78H689.2030000000001V2299.76C689.2030000000001 2299.7200000000003 689.2130000000001 2299.65 689.2270000000001 2299.59H692.9520000000001C692.9830000000001 2299.65 693.0120000000001 2299.73 693.0170000000002 2299.76ZM704.798 2300.16C704.425 2301.7 703.399 2305.8399999999997 703.128 2306.5099999999998C702.999 2306.83 702.615 2306.9999999999995 701.9870000000001 2306.9999999999995H696.5100000000001C696.0270000000002 2306.9999999999995 694.9040000000001 2306.4599999999996 694.2170000000001 2306.0599999999995V2300.8599999999997L695.1550000000001 2300.4799999999996L697.1940000000001 2296.7699999999995L697.186 2296.5999999999995C697.152 2295.8199999999993 697.172 2294.8199999999993 697.263 2294.5299999999993C697.325 2294.4299999999994 697.62 2294.209999999999 697.976 2294.2199999999993C698.493 2294.2399999999993 698.846 2294.7799999999993 699.051 2295.2299999999996C699.85 2296.9799999999996 699.3100000000001 2297.7299999999996 699.2990000000001 2297.7499999999995L699.3410000000001 2297.7899999999995C699.2470000000001 2297.8999999999996 699.1880000000001 2298.0399999999995 699.1880000000001 2298.1899999999996C699.1880000000001 2298.5299999999997 699.4560000000001 2298.7999999999997 699.7880000000001 2298.7999999999997H704.3400000000001C704.5710000000001 2299.0199999999995 704.8460000000001 2299.91 704.7980000000001 2300.16Z " fill="#333333" fill-opacity="1" transform="matrix(1,0,0,1,-688,-2292)"></path></svg>