<svg id="SvgjsSvg1008" xmlns="http://www.w3.org/2000/svg" version="1.1" xmlns:xlink="http://www.w3.org/1999/xlink" xmlns:svgjs="http://svgjs.com/svgjs" width="11" height="15" viewBox="0 0 11 15"><title>Фигура 24</title><desc>Created with Avocode.</desc><defs id="SvgjsDefs1009"></defs><path id="SvgjsPath1010" d="M1454.85 17.7106H1448.1C1448.1 17.694 1448.1 17.694 1448.1 17.6774V15.570799999999998C1448.1 14.791399999999998 1448.6999999999998 14.160899999999998 1449.4399999999998 14.160899999999998H1451.7699999999998C1452.5099999999998 14.160899999999998 1453.0999999999997 14.791399999999998 1453.0999999999997 15.570799999999998V15.703699999999998C1453.0999999999997 16.0189 1453.3599999999997 16.2841 1453.6499999999996 16.2841C1453.9499999999996 16.2841 1454.2099999999996 16.0189 1454.2099999999996 15.703699999999998V15.570799999999998C1454.2099999999996 14.160899999999998 1453.0999999999997 12.999799999999999 1451.7699999999995 12.999799999999999H1449.4399999999996C1448.0999999999997 12.999799999999999 1446.9999999999995 14.160899999999998 1446.9999999999995 15.570799999999998V17.694C1446.9999999999995 17.7106 1446.9999999999995 17.7106 1446.9999999999995 17.7272H1446.1499999999996C1445.5199999999995 17.7272 1444.9999999999995 18.2747 1444.9999999999995 18.9381V25.7887C1444.9999999999995 26.452099999999998 1445.5199999999995 26.999599999999997 1446.1499999999996 26.999599999999997H1454.8499999999997C1455.4799999999998 26.999599999999997 1455.9999999999998 26.452099999999998 1455.9999999999998 25.7887V18.9381C1455.9999999999998 18.2581 1455.4799999999998 17.7106 1454.8499999999997 17.7106ZM1454.9 25.7887C1454.9 25.8219 1454.8700000000001 25.8385 1454.8500000000001 25.8385H1446.16C1446.13 25.8385 1446.1200000000001 25.8053 1446.1200000000001 25.7887V18.9381C1446.1200000000001 18.904899999999998 1446.15 18.888299999999997 1446.16 18.888299999999997H1454.8700000000001C1454.9 18.888299999999997 1454.91 18.921499999999998 1454.91 18.9381V25.7887ZM1450.51 21.1277C1451.19 21.1277 1451.75 21.7143 1451.75 22.438000000000002C1451.75 23.161700000000003 1451.19 23.748500000000003 1450.51 23.748500000000003C1449.82 23.748500000000003 1449.26 23.161700000000003 1449.26 22.438000000000002C1449.26 21.7143 1449.82 21.1277 1450.51 21.1277Z " fill="#fb2539" fill-opacity="1" transform="matrix(1,0,0,1,-1445,-12)"></path></svg>