<svg id="SvgjsSvg1038" xmlns="http://www.w3.org/2000/svg" version="1.1" xmlns:xlink="http://www.w3.org/1999/xlink" xmlns:svgjs="http://svgjs.com/svgjs" width="21" height="15" viewBox="0 0 21 15"><title>Фигура 21</title><desc>Created with Avocode.</desc><defs id="SvgjsDefs1039"></defs><path id="SvgjsPath1040" d="M1424.81 177.666H1440.9199999999998C1441.37 177.666 1441.7299999999998 177.293 1441.7299999999998 176.833C1441.7299999999998 176.373 1441.37 176 1440.9199999999998 176H1424.81C1424.36 176 1424 176.373 1424 176.833C1424 177.293 1424.36 177.666 1424.81 177.666ZM1424.81 182.042H1438.52C1438.97 182.042 1439.33 181.668 1439.33 181.208C1439.33 180.748 1438.97 180.375 1438.52 180.375H1424.81C1424.36 180.375 1424 180.748 1424 181.208C1424 181.668 1424.36 182.042 1424.81 182.042ZM1443.21 184.833H1424.81C1424.36 184.833 1424 185.206 1424 185.666C1424 186.126 1424.36 186.5 1424.81 186.5H1443.21C1443.65 186.5 1444.01 186.126 1444.01 185.666C1444.01 185.206 1443.65 184.833 1443.21 184.833ZM1431.09 189.333H1424.81C1424.36 189.333 1424 189.706 1424 190.167C1424 190.627 1424.36 191 1424.81 191H1431.09C1431.54 191 1431.8999999999999 190.627 1431.8999999999999 190.167C1431.8999999999999 189.706 1431.54 189.333 1431.09 189.333Z " fill="#ebc712" fill-opacity="1" transform="matrix(1,0,0,1,-1424,-176)"></path></svg>