<svg id="SvgjsSvg1029" xmlns="http://www.w3.org/2000/svg" version="1.1" xmlns:xlink="http://www.w3.org/1999/xlink" xmlns:svgjs="http://svgjs.com/svgjs" width="20" height="21" viewBox="0 0 20 21"><title>Фигура 23</title><desc>Created with Avocode.</desc><defs id="SvgjsDefs1030"></defs><path id="SvgjsPath1031" d="M647.253 177.139C647.253 174.822 645.6210000000001 172.99800000000002 643.1120000000001 172.99800000000002C640.628 172.99800000000002 638.9960000000001 174.82200000000003 638.9960000000001 177.139C638.9960000000001 179.43200000000002 640.628 181.18200000000002 643.1120000000001 181.18200000000002C645.6210000000001 181.18200000000002 647.253 179.43200000000002 647.253 177.139ZM641.188 177.139C641.188 175.75900000000001 642.016 174.94500000000002 643.112 174.94500000000002C644.232 174.94500000000002 645.036 175.75900000000001 645.036 177.139C645.036 178.42100000000002 644.232 179.25900000000001 643.112 179.25900000000001C642.016 179.25900000000001 641.188 178.42100000000002 641.188 177.139ZM654.027 173.226H653.5690000000001C653.34 173.226 653.1260000000001 173.345 653.0020000000001 173.541L642.3420000000001 190.435C642.0560000000002 190.888 642.3770000000001 191.481 642.9080000000001 191.481H643.3410000000001C643.5710000000001 191.481 643.7840000000001 191.363 643.9070000000002 191.168L654.5930000000002 174.273C654.8800000000002 173.821 654.5590000000002 173.226 654.0270000000002 173.226ZM653.801 183.682C651.283 183.682 649.629 185.53199999999998 649.629 187.881C649.629 190.205 651.283 192.003 653.801 192.003C656.32 192.003 657.998 190.20499999999998 657.998 187.88099999999997C657.998 185.53199999999998 656.32 183.68199999999996 653.801 183.68199999999996ZM653.801 190.054C652.666 190.054 651.851 189.23 651.851 187.881C651.851 186.506 652.666 185.656 653.801 185.656C654.937 185.656 655.777 186.506 655.777 187.881C655.777 189.23 654.937 190.054 653.801 190.054Z " fill="#ebc712" fill-opacity="1" transform="matrix(1,0,0,1,-638,-172)"></path></svg>