<svg id="SvgjsSvg1000" xmlns="http://www.w3.org/2000/svg" version="1.1" xmlns:xlink="http://www.w3.org/1999/xlink" xmlns:svgjs="http://svgjs.com/svgjs" width="48" height="47" viewBox="0 0 48 47"><title>Фигура 40 копия 2</title><desc>Created with Avocode.</desc><defs id="SvgjsDefs1001"></defs><path id="SvgjsPath1007" d="M748.002 3087.98C735.3069999999999 3087.98 724.9799999999999 3077.67 724.9799999999999 3064.9900000000002C724.9799999999999 3052.3100000000004 735.3069999999999 3041.9900000000002 748.002 3041.9900000000002C760.6959999999999 3041.9900000000002 771.0229999999999 3052.3100000000004 771.0229999999999 3064.9900000000002C771.0229999999999 3077.67 760.6959999999999 3087.98 748.002 3087.98ZM748.002 3044.66C736.779 3044.66 727.649 3053.7799999999997 727.649 3064.99C727.649 3076.2 736.779 3085.31 748.002 3085.31C759.2239999999999 3085.31 768.3539999999999 3076.2 768.3539999999999 3064.99C768.3539999999999 3053.7799999999997 759.2239999999999 3044.66 748.002 3044.66ZM741.802 3074.78V3055.19L758.788 3064.9900000000002ZM744.471 3059.81V3070.16L753.449 3064.99Z " fill="#fb2539" fill-opacity="1" transform="matrix(1,0,0,1,-724,-3041)"></path></svg>