<svg id="SvgjsSvg1035" xmlns="http://www.w3.org/2000/svg" version="1.1" xmlns:xlink="http://www.w3.org/1999/xlink" xmlns:svgjs="http://svgjs.com/svgjs" width="21" height="21" viewBox="0 0 21 21"><title>Фигура 20</title><desc>Created with Avocode.</desc><defs id="SvgjsDefs1036"></defs><path id="SvgjsPath1037" d="M1158.5 172C1152.71 172 1148 176.71 1148 182.5C1148 188.29 1152.71 193 1158.5 193C1164.29 193 1169 188.29 1169 182.5C1169 176.71 1164.29 172 1158.5 172ZM1158.5 191.303C1153.65 191.303 1149.7 187.35399999999998 1149.7 182.5C1149.7 177.646 1153.65 173.697 1158.5 173.697C1163.35 173.697 1167.3 177.64600000000002 1167.3 182.5C1167.3 187.354 1163.35 191.303 1158.5 191.303ZM1158.5 185.934C1157.84 185.934 1157.26 186.514 1157.26 187.177C1157.26 187.839 1157.84 188.42 1158.5 188.42C1159.16 188.42 1159.74 187.839 1159.74 187.177C1159.74 186.51399999999998 1159.16 185.934 1158.5 185.934ZM1158.4 176.789C1157.17 176.789 1156.14 177.41899999999998 1155.5700000000002 178.506C1155.44 178.724 1155.41 178.982 1155.4900000000002 179.215C1155.5600000000002 179.43 1155.7200000000003 179.605 1155.9300000000003 179.697C1156.0600000000004 179.769 1156.2000000000003 179.808 1156.3500000000004 179.808C1156.6700000000003 179.808 1156.9700000000003 179.611 1157.0900000000004 179.31699999999998C1157.3300000000004 178.84799999999998 1157.8100000000004 178.557 1158.3500000000004 178.557C1159.1200000000003 178.557 1159.7700000000004 179.208 1159.7700000000004 179.97799999999998C1159.7700000000004 180.52599999999998 1159.3500000000004 180.90399999999997 1158.8200000000004 181.38899999999998L1158.7200000000005 181.48499999999999C1158.1600000000005 182.04399999999998 1157.4600000000005 182.73799999999997 1157.4600000000005 183.82V184.281C1157.4600000000005 184.793 1157.8300000000004 185.165 1158.3500000000006 185.165C1158.8600000000006 185.165 1159.2300000000007 184.79299999999998 1159.2300000000007 184.281V183.769C1159.2300000000007 183.41 1159.5800000000006 183.06900000000002 1160.0300000000007 182.66C1160.5600000000006 182.178 1161.5400000000006 181.281 1161.5400000000006 179.927C1161.5400000000006 178.226 1160.1000000000006 176.789 1158.4000000000005 176.789Z " fill="#ebc712" fill-opacity="1" transform="matrix(1,0,0,1,-1148,-172)"></path></svg>