<svg id="SvgjsSvg1032" xmlns="http://www.w3.org/2000/svg" version="1.1" xmlns:xlink="http://www.w3.org/1999/xlink" xmlns:svgjs="http://svgjs.com/svgjs" width="28" height="18" viewBox="0 0 28 18"><title>Фигура 22</title><desc>Created with Avocode.</desc><defs id="SvgjsDefs1033"></defs><path id="SvgjsPath1034" d="M864.134 180.724H856.576V173.898C856.576 173.4 856.1890000000001 172.996 855.71 172.996H847.287C846.8090000000001 172.996 846.421 173.4 846.421 173.898V177.763H838.865C838.386 177.763 837.999 178.165 837.999 178.66400000000002V189.098C837.999 189.597 838.386 190 838.865 190H864.134C864.612 190 865 189.597 865 189.098V181.627C865 181.127 864.612 180.72400000000002 864.134 180.72400000000002ZM846.421 188.196H839.731V179.566H846.421ZM854.844 188.195H848.154V174.79999999999998H854.844ZM863.267 188.196H856.576V182.529H863.267Z " fill="#ebc712" fill-opacity="1" transform="matrix(1,0,0,1,-837,-172)"></path></svg>