<svg id="SvgjsSvg1011" xmlns="http://www.w3.org/2000/svg" version="1.1" xmlns:xlink="http://www.w3.org/1999/xlink" xmlns:svgjs="http://svgjs.com/svgjs" width="18" height="18" viewBox="0 0 18 18"><title>Фигура 19</title><desc>Created with Avocode.</desc><defs id="SvgjsDefs1012"></defs><path id="SvgjsPath1013" d="M909.747 109.537L905.735 105.52300000000001C906.792 104.20400000000001 907.427 102.53200000000001 907.427 100.71400000000001C907.427 96.46070000000002 903.9680000000001 93.00000000000001 899.715 93.00000000000001C895.4630000000001 93.00000000000001 892.003 96.46070000000002 892.003 100.71400000000001C892.003 104.96800000000002 895.4630000000001 108.42800000000001 899.715 108.42800000000001C901.533 108.42800000000001 903.2040000000001 107.79200000000002 904.523 106.73500000000001L908.535 110.74900000000001C908.703 110.91600000000001 908.9219999999999 111.00000000000001 909.141 111.00000000000001C909.361 111.00000000000001 909.5799999999999 110.91600000000001 909.747 110.74900000000001C910.082 110.41400000000002 910.082 109.87100000000001 909.747 109.537ZM899.715 106.714C896.408 106.714 893.717 104.023 893.717 100.714C893.717 97.4057 896.408 94.7143 899.715 94.7143C903.023 94.7143 905.714 97.4057 905.714 100.714C905.714 104.023 903.023 106.714 899.715 106.714Z " fill="#333333" fill-opacity="1" transform="matrix(1,0,0,1,-892,-93)"></path></svg>