<svg id="SvgjsSvg1017" xmlns="http://www.w3.org/2000/svg" version="1.1" xmlns:xlink="http://www.w3.org/1999/xlink" xmlns:svgjs="http://svgjs.com/svgjs" width="20" height="21" viewBox="0 0 20 21"><title>Фигура 42</title><desc>Created with Avocode.</desc><defs id="SvgjsDefs1018"></defs><path id="SvgjsPath1019" d="M691.388 693.207C690.246 693.207 689.239 693.741 688.581 694.557L682.9590000000001 691.514C683.0870000000001 691.153 683.171 690.772 683.171 690.368C683.171 688.428 681.5590000000001 686.85 679.5790000000001 686.85C677.599 686.85 675.988 688.428 675.988 690.368C675.988 692.3090000000001 677.599 693.8860000000001 679.5790000000001 693.8860000000001C680.715 693.8860000000001 681.7170000000001 693.3580000000001 682.3760000000001 692.5490000000001L688.0040000000001 695.5950000000001C687.8790000000001 695.9520000000001 687.7970000000001 696.3280000000001 687.7970000000001 696.7250000000001C687.7970000000001 697.2830000000001 687.9420000000001 697.8030000000001 688.1780000000001 698.2720000000002L682.5660000000001 701.4150000000002C681.9220000000001 700.4700000000001 680.8240000000002 699.8450000000001 679.5790000000002 699.8450000000001C677.5990000000002 699.8450000000001 675.9880000000002 701.4220000000001 675.9880000000002 703.3620000000002C675.9880000000002 705.3020000000002 677.5990000000002 706.8810000000002 679.5790000000002 706.8810000000002C681.5590000000002 706.8810000000002 683.1710000000002 705.3020000000002 683.1710000000002 703.3620000000002C683.1710000000002 703.0650000000002 683.1210000000002 702.7800000000002 683.0500000000002 702.5040000000002L688.8830000000002 699.2390000000003C689.5310000000002 699.8580000000003 690.4130000000001 700.2430000000003 691.3880000000001 700.2430000000003C693.3680000000002 700.2430000000003 694.9780000000002 698.6650000000003 694.9780000000002 696.7250000000003C694.9780000000002 694.7850000000002 693.3680000000002 693.2070000000002 691.3880000000001 693.2070000000002ZM679.579 692.705C678.265 692.705 677.1949999999999 691.657 677.1949999999999 690.368C677.1949999999999 689.081 678.265 688.033 679.579 688.033C680.894 688.033 681.9639999999999 689.081 681.9639999999999 690.368C681.9639999999999 691.657 680.8939999999999 692.705 679.579 692.705ZM679.579 705.699C678.265 705.699 677.1949999999999 704.651 677.1949999999999 703.362C677.1949999999999 702.0749999999999 678.265 701.026 679.579 701.026C680.894 701.026 681.9639999999999 702.0749999999999 681.9639999999999 703.362C681.9639999999999 704.651 680.8939999999999 705.699 679.579 705.699ZM691.388 699.061C690.072 699.061 689.0020000000001 698.013 689.0020000000001 696.725C689.0020000000001 695.437 690.0720000000001 694.389 691.388 694.389C692.702 694.389 693.772 695.437 693.772 696.725C693.772 698.013 692.702 699.061 691.388 699.061Z " fill="#333333" fill-opacity="1" transform="matrix(1,0,0,1,-675,-686)"></path></svg>