<svg id="SvgjsSvg1008" xmlns="http://www.w3.org/2000/svg" version="1.1" xmlns:xlink="http://www.w3.org/1999/xlink" xmlns:svgjs="http://svgjs.com/svgjs" width="22" height="37" viewBox="0 0 22 37"><title>Фигура 39</title><desc>Created with Avocode.</desc><defs id="SvgjsDefs1009"></defs><path id="SvgjsPath1010" d="M149.424 374.752C150.495 374.559 151.87300000000002 373.71500000000003 151.87300000000002 372.027C151.87300000000002 370.03999999999996 150.20600000000002 368.897 148.03000000000003 368.897C146.27800000000002 368.897 144.96900000000002 369.68899999999996 144.15200000000004 370.709L144.93500000000003 371.622C145.76800000000003 370.69100000000003 146.68600000000004 370.19800000000004 147.92800000000003 370.19800000000004C149.30500000000004 370.19800000000004 150.46200000000002 370.90200000000004 150.46200000000002 372.20300000000003C150.46200000000002 373.557 149.25400000000002 374.13800000000003 147.82500000000002 374.13800000000003C147.36700000000002 374.13800000000003 146.84 374.13800000000003 146.65300000000002 374.12000000000006V375.45500000000004C146.823 375.439 147.35000000000002 375.439 147.82500000000002 375.439C149.49200000000002 375.439 150.64900000000003 376.05400000000003 150.64900000000003 377.514C150.64900000000003 378.867 149.64500000000004 379.711 147.99600000000004 379.711C146.65300000000005 379.711 145.49600000000004 379.07800000000003 144.83300000000003 378.164L143.99900000000002 379.078C144.69600000000003 380.133 146.10800000000003 381.013 148.03000000000003 381.013C150.52900000000002 381.013 152.04300000000003 379.58799999999997 152.04300000000003 377.63599999999997C152.04300000000003 375.755 150.46200000000005 374.84099999999995 149.42400000000004 374.75199999999995ZM158.185 369.073H154.308V380.80199999999996H158.185C161.705 380.80199999999996 164.001 378.287 164.001 374.94599999999997C164.001 371.62199999999996 161.705 369.073 158.185 369.073ZM158.185 379.5H155.72V370.375H158.185C160.991 370.375 162.538 372.415 162.538 374.946C162.538 377.461 160.94 379.5 158.185 379.5ZM163.424 361.009L163.39600000000002 350.72700000000003L163.39100000000002 350.65000000000003C163.36700000000002 350.413 163.235 350.20000000000005 163.03500000000003 350.081L154.76300000000003 345.10900000000004C154.54200000000003 344.97800000000007 154.25900000000004 344.97800000000007 154.03700000000003 345.11L145.38500000000005 350.27500000000003L145.28600000000006 350.34900000000005C145.11800000000005 350.49300000000005 145.02200000000005 350.70300000000003 145.02300000000005 350.93000000000006L145.05100000000004 361.20700000000005C145.05100000000004 361.47400000000005 145.19000000000005 361.72200000000004 145.41100000000006 361.85400000000004L153.68500000000006 366.826C153.81900000000005 366.90500000000003 153.97600000000006 366.937 154.13200000000006 366.92100000000005L154.15500000000006 366.94200000000006L163.06000000000006 361.6600000000001C163.28400000000005 361.5280000000001 163.42400000000006 361.2790000000001 163.42400000000006 361.00900000000007ZM161.975 360.579L154.767 364.882L154.743 356.326L161.951 352.024ZM161.227 350.726L154.02 355.029L147.191 350.926L154.398 346.623ZM146.474 352.226L153.296 356.327L153.31799999999998 364.873L146.49599999999998 360.774Z " fill="#fb2539" fill-opacity="1" transform="matrix(1,0,0,1,-143,-345)"></path></svg>