<svg id="SvgjsSvg1020" xmlns="http://www.w3.org/2000/svg" version="1.1" xmlns:xlink="http://www.w3.org/1999/xlink" xmlns:svgjs="http://svgjs.com/svgjs" width="34" height="23" viewBox="0 0 34 23"><title>Фигура 4</title><desc>Created with Avocode.</desc><defs id="SvgjsDefs1021"></defs><path id="SvgjsPath1022" d="M1515.9 84.3262L1510.8200000000002 75.5535C1510.7100000000003 75.2626 1510.44 75.0538 1510.1200000000001 75.0538H1501.65C1501.3500000000001 74.4309 1500.73 74.0003 1500 74.0003C1499.27 74.0003 1498.65 74.4309 1498.35 75.0538H1489.8999999999999C1489.6 75.0538 1489.34 75.2323 1489.2299999999998 75.48859999999999C1489.2099999999998 75.5063 1489.1999999999998 75.5238 1489.1899999999998 75.5426L1484.1 84.32669999999999C1483.99 84.51369999999999 1483.9699999999998 84.728 1484.03 84.9215C1484.03 84.98519999999999 1484.02 85.04849999999999 1484.02 85.1125C1484.02 88.5907 1486.41 91.0198 1489.83 91.0198C1493.25 91.0198 1495.6399999999999 88.5907 1495.6399999999999 85.1125C1495.6399999999999 85.04899999999999 1495.6299999999999 84.9863 1495.6299999999999 84.9232C1495.6799999999998 84.72949999999999 1495.6699999999998 84.51419999999999 1495.56 84.3262L1491.06 76.5685H1498.29C1498.46 77.028 1498.81 77.3986 1499.26 77.5981V95.4847H1493.52C1493.11 95.4847 1492.78 95.8238 1492.78 96.2422C1492.78 96.6604 1493.11 96.99929999999999 1493.52 96.99929999999999H1506.48C1506.89 96.99929999999999 1507.22 96.6604 1507.22 96.2422C1507.22 95.82379999999999 1506.89 95.4847 1506.48 95.4847H1500.74V77.5981C1501.19 77.3986 1501.54 77.028 1501.71 76.5685H1508.94L1504.44 84.3262C1504.3300000000002 84.5148 1504.31 84.7307 1504.3700000000001 84.9248C1504.3700000000001 84.98740000000001 1504.3600000000001 85.0497 1504.3600000000001 85.11250000000001C1504.3600000000001 88.59070000000001 1506.7500000000002 91.01980000000002 1510.17 91.01980000000002C1513.5900000000001 91.01980000000002 1515.98 88.59070000000001 1515.98 85.11250000000001C1515.98 85.049 1515.97 84.98630000000001 1515.97 84.92320000000001C1516.03 84.7295 1516.01 84.5142 1515.9 84.32620000000001ZM1489.83 89.5048C1487.34 89.5048 1485.6799999999998 87.9487 1485.52 85.50500000000001H1494.1399999999999C1493.9799999999998 87.94870000000002 1492.32 89.5048 1489.83 89.5048ZM1493.64 83.9904H1486.0200000000002L1489.8300000000002 77.4176ZM1500.69 75.8796C1500.69 76.2661 1500.38 76.5804 1500 76.5804C1499.62 76.5804 1499.31 76.2661 1499.31 75.8796C1499.31 75.4928 1499.62 75.17819999999999 1500 75.17819999999999C1500.38 75.17819999999999 1500.69 75.49279999999999 1500.69 75.8796ZM1510.17 77.4176L1513.98 83.9904H1506.3600000000001ZM1510.17 89.5048C1507.68 89.5048 1506.02 87.9487 1505.8600000000001 85.50500000000001H1514.48C1514.32 87.94870000000002 1512.66 89.5048 1510.17 89.5048Z " fill="#333333" fill-opacity="1" transform="matrix(1,0,0,1,-1483,-74)"></path></svg>